PathFileType	4	(X/Y/Z)	Patient4_TMGait_0pt2_02_right_16.trc.trc
DataRate	CameraRate	NumFrames	NumMarkers	Units	OrigDataRate	OrigDataStartFrame	OrigNumFrames
44.871794871795	44.871794871795	6	33	mm	44.871794871795	124	       141
Frame#	Time	R.Midfoot.Superior			Sacral			L.Shoulder			Chest			R.Shoulder			Neck			R.ASIS			L.ASIS			R.Thigh.Superior			R.Thigh.Lateral			R.Thigh.Inferior			R.Patella			L.Thigh.Superior			L.Thigh.Lateral			L.Thigh.Inferior			L.Patella			L.Shank.Superior			L.Shank.Lateral			L.Shank.Inferior			R.Shank.Superior			R.Shank.Lateral			R.Shank.Inferior			R.Heel			R.Midfoot.Lateral			R.Toe			L.Heel			L.Midfoot.Lateral			L.Midfoot.Superior			L.Toe			L.Elbow			L.Wrist			R.Elbow			R.Wrist			
		X1	Y1	Z1	X2	Y2	Z2	X3	Y3	Z3	X4	Y4	Z4	X5	Y5	Z5	X6	Y6	Z6	X7	Y7	Z7	X8	Y8	Z8	X9	Y9	Z9	X10	Y10	Z10	X11	Y11	Z11	X12	Y12	Z12	X13	Y13	Z13	X14	Y14	Z14	X15	Y15	Z15	X16	Y16	Z16	X17	Y17	Z17	X18	Y18	Z18	X19	Y19	Z19	X20	Y20	Z20	X21	Y21	Z21	X22	Y22	Z22	X23	Y23	Z23	X24	Y24	Z24	X25	Y25	Z25	X26	Y26	Z26	X27	Y27	Z27	X28	Y28	Z28	X29	Y29	Z29	X30	Y30	Z30	X31	Y31	Z31	X32	Y32	Z32	X33	Y33	Z33	

124	38.291142857143	1215.305695601929	104.387366148578	613.717585719329	864.633706980170	989.387567461003	366.201227626036	1071.324788613217	1435.019524711410	247.266242992988	1106.500861192779	1369.854452156516	432.515671863252	965.652011543978	1442.580471656202	562.509987088027	988.662041612107	1490.239332195053	386.788962848369	1058.068997493462	942.146058529669	544.212913821291	1114.753527434768	963.212102678837	273.704120851888	1139.331551185600	760.540347246571	533.239415086999	1072.966311286502	640.985543022064	595.787438093679	1172.230541584362	598.891209086348	536.436188492849	1195.150493717199	512.801128795748	557.988816852462	1128.920853723772	736.907898795143	307.845364551658	1031.341950215143	624.610464105969	236.682479385229	1091.571979328468	542.980511903201	313.555391464304	1079.628009616332	474.371075325668	324.421647967794	1045.570904768432	404.650182323280	316.738591128487	946.754049064524	297.203147641004	266.450758344069	980.383355023984	186.112359067275	347.676668461892	1171.458347785851	422.208054259284	569.618628520306	1099.435276326706	320.196482003935	633.554972933658	1161.373317334657	223.381800909535	592.981006959207	1045.845633339223	50.734078875917	570.057084690859	1127.203251116290	40.967857931706	645.743426808475	1332.995072946357	54.668224653487	643.978238824247	838.871353083234	38.883951011174	395.428843895455	911.397931265698	35.718024705093	313.483217716163	996.367187497416	95.576719068773	339.397097401097	1123.722617966536	41.527438211596	308.567700675121	1294.800315409940	1218.349865670413	97.827669381257	1550.901732794946	1251.416045805883	143.273364567840	780.157391754131	1146.220811191735	615.525641253359	739.537057045566	885.447834228355	597.128859041637	
125	38.313428571429	1208.306773622835	102.745950689952	611.482945656673	865.665012370646	988.534285456416	368.550211315064	1070.807499193885	1434.506082023732	251.081057215823	1105.603400017363	1369.478589114449	436.467601329331	963.942526668823	1441.597928422739	565.953098386925	987.417368577792	1489.405267833223	390.210769346065	1058.745336309744	940.922893578471	547.000260244024	1116.270964495318	963.086523400004	276.734231009333	1139.938469663834	758.077119874387	535.628579536585	1072.108427152526	638.539817532655	596.561650293182	1171.637403335065	596.415956197945	537.421235697476	1193.529791838110	509.997546823606	558.065803629929	1129.217295166201	736.100769118455	310.031987817611	1030.605423462606	624.560771452462	238.629467039090	1090.050715067849	542.288014849659	315.333500477028	1077.597973965961	473.601258595292	325.978626013007	1043.061254868335	404.231226300250	318.005499701150	943.587290965573	297.559948251046	267.186589202652	976.526140206199	185.912505394631	347.999510051391	1168.933483920589	419.287007433845	569.475090342658	1095.764978989586	317.871272819643	632.999529825927	1156.307622344177	220.611438273168	591.717838839363	1038.764035513907	48.877035574421	568.740415697552	1120.139461364961	39.999818711019	644.608550619323	1326.010083405441	53.340802588013	642.251402534435	834.457288691474	38.918162604366	395.386417677871	906.998535861093	35.697011818747	313.483109138662	991.991807061517	95.533012455551	339.412611354554	1119.337873084374	41.390838576973	308.568988934119	1295.669239384879	1219.584095438314	101.800944643713	1551.171796410882	1256.824689436063	147.165857136243	780.053382263164	1144.095988771868	618.920941672636	741.330002321079	882.902796106069	600.577842639175	
126	38.335714285714	1201.709046045857	101.479957347531	609.805952688716	866.723970635375	987.983501126004	371.313948408320	1070.560017638146	1434.206547603176	255.076762048066	1105.201818804475	1369.200698104730	440.576415104053	962.837116125925	1440.686970384034	569.693409476010	986.586131167005	1488.770265574013	393.944607390507	1059.652433695046	939.999119243902	550.015843936092	1117.736170622078	962.951947278580	279.952685829034	1140.568904530956	755.858122555464	538.087205137526	1071.660704661144	636.539624732012	597.855988625856	1171.139609317532	594.219480917820	538.521041744016	1192.103698027151	507.532788976401	558.429380371515	1129.472764935985	735.291536199208	312.546782338670	1029.930853895969	624.504370537341	240.911932014941	1088.676745890802	541.605665980035	317.432396801919	1075.768181057412	472.823791745563	327.833157058335	1040.693728963606	403.810980588300	319.525864749335	940.504140030379	297.981489447793	268.129776251735	972.718711596002	185.704827711901	348.414092214157	1166.614834298779	416.743973261823	569.687874633353	1092.479571718010	315.861757299950	633.030876402558	1151.571477167359	218.154197584245	590.886179532860	1032.065691953444	47.166797445211	567.948829366367	1113.544111740972	39.153989819555	643.934456320170	1319.553860948503	52.478639980262	640.880621604003	830.047689021068	38.929099746354	395.341165064377	902.607972681312	35.664814371041	313.491034394752	987.619966567934	95.487637839098	339.440761745205	1114.962362435519	41.245387999335	308.568308424653	1296.424798288146	1220.519670477526	105.760905533321	1551.460326934347	1261.018662972912	150.904455710000	780.514257368822	1142.104427221165	623.139455855690	743.583329121828	880.520601149467	605.247132330049	
127	38.358000000000	1195.675598045352	100.574857726496	608.715507512057	867.762494905893	987.702845057269	374.565266076277	1070.567491121645	1434.073572849727	259.204288723656	1105.283148327276	1369.010692351001	444.797179366775	962.357996350305	1439.895137240934	573.694607107462	986.182986289175	1488.329500898187	397.939814491252	1060.755903738572	939.379237264536	553.311816169532	1119.069892894110	962.789591890514	283.386637994968	1141.239711762618	753.977381622864	540.691757569070	1071.650462987318	635.002170011908	599.733480056003	1170.800343175125	592.371077696018	539.853079794631	1190.928082773692	505.448481565075	559.179236874066	1129.593357037920	734.486977536345	315.382566601569	1029.190869135970	624.470040705877	243.512943028376	1087.320621322209	540.946646425351	319.808479447989	1073.999844308044	472.064140733902	329.943149105344	1038.366454554624	403.414240694675	321.264389805448	937.421367815272	298.467449926355	269.266521248741	968.921891721244	185.504415293186	348.910916466221	1164.589152957966	414.618054348115	570.306290649492	1089.685682414020	314.187797740123	633.658778489392	1147.295871446741	216.072685384578	590.509526339715	1025.939024965404	45.701666892516	567.618276705800	1107.563585410980	38.442706336924	643.673190358317	1313.746510511646	52.003215444355	639.916270269229	825.629214659471	38.916379829055	395.293157468195	898.212657065004	35.621492563501	313.508106300210	983.237686995741	95.442542744073	339.479680384115	1110.581821818024	41.097682008783	308.565606882410	1297.042390110152	1221.092391174550	109.679067887948	1551.773155487786	1263.967812003619	154.476302077981	781.527565408284	1140.336851875228	628.114980275526	746.265435907496	878.398562700219	610.999175932799	
128	38.380285714286	1190.225614170274	99.979331201018	608.151655026915	868.747339242186	987.641092829191	378.389249959917	1070.785808266078	1434.036073706989	263.419825049558	1105.817447528715	1368.889200533040	449.090318632990	962.508649630880	1439.251547944735	577.928647368885	986.204488682413	1488.059715065326	402.147396305419	1062.040312834122	939.037037074378	556.943460288055	1120.199921121566	962.585155354250	287.069591786253	1141.998594093999	752.489813814387	543.501250274343	1072.105468119269	633.889937867030	602.191792473865	1170.698154773387	590.894368868538	541.487724532687	1190.066852601272	503.728639733198	560.340094136682	1129.503595649067	733.695142625947	318.520950659092	1028.274916443511	624.484422467187	246.410932664099	1085.875261057715	540.323675317645	322.412037641883	1072.180394575967	471.340535127263	332.255030524240	1035.993372104135	403.062356794597	323.179121281247	934.265285330408	299.022135448722	270.580067951998	965.098793669752	185.329036997576	349.477372052028	1162.921429256911	412.888066241806	571.312550428970	1087.425601711636	312.836224200016	634.814993064270	1143.516011098852	214.374233969507	590.540830780615	1020.415600815912	44.545099548702	567.644385846526	1102.193480764566	37.876535658904	643.737049093845	1308.561487000279	51.800873224086	639.345118677772	821.185014052941	38.892375858253	395.242177090763	893.795366848410	35.574228757348	313.534735128526	978.830255114418	95.402162887839	339.526046337819	1106.177270627530	40.952672094401	308.560318343566	1297.439299778285	1221.185625282645	113.542996004391	1552.043393504516	1265.554964467641	157.876988297579	783.111786886518	1138.828573255167	633.796411620178	749.436859847436	876.572238007841	617.720894200469	
129	38.402571428571	1185.278256196980	99.619146770948	607.995982503676	869.661303969547	987.736256887827	382.873706692009	1071.145280568565	1434.011378825345	267.691456119042	1106.762131762702	1368.811305518628	453.425583207679	963.278198036677	1438.765448210728	582.381395981132	986.630227949529	1487.924660299272	406.529237071223	1063.509189887806	938.920695928149	560.960266239662	1121.066501684181	962.331867810336	291.035369986291	1142.903996439119	751.399119609295	546.546982962724	1073.033750198003	633.119071055555	605.167085224281	1170.896496148977	589.764963343594	543.437012994170	1189.568960951731	502.311087008755	561.862258969284	1129.160378732185	732.927184025475	321.934137368269	1027.112138611177	624.566687075619	249.584003740158	1084.284212094841	539.747376294410	325.193419256194	1070.254166286999	470.659247268287	334.709406676593	1033.527580551143	402.768266501903	325.226908595199	930.989394238112	299.656308890560	272.054457009421	961.224701028967	185.197960930324	350.098808079246	1161.643731850877	411.485646010999	572.634058100820	1085.684498860410	311.763073425394	636.375371014858	1140.194241159108	213.017946406201	590.883324435516	1015.416942863069	43.717223866650	567.906801436504	1097.329091699099	37.457533832474	644.020338435243	1303.878588163769	51.747594160035	639.107986370507	816.697624549594	38.886820449458	395.187443240111	889.337805136631	35.540094322850	313.570302420655	974.385801421390	95.374018222373	339.574995061066	1101.727102737556	40.812026903224	308.551159287617	1297.475557664806	1220.640507737269	117.359047903656	1552.132990885188	1265.578459436131	161.110015385055	785.317039038436	1137.561902238007	640.154683696042	753.242246406572	875.021067883192	625.340864919609	
